<svg width="1440" height="1187" viewBox="0 0 1440 1187" fill="none" xmlns="http://www.w3.org/2000/svg">
<path d="M-343.945 632.978C-374.498 493.09 -410.412 197.748 -309.644 135.482C-228.722 85.4792 -142.984 102.796 -104.186 109.363C-128.36 78.2616 -145.222 51.0177 -153 31C-184.164 -49.2081 -137.842 50.8355 -91.9481 96.8803C-75.5384 113.344 -82.592 113.019 -104.186 109.363C-31.4976 202.882 107.298 331.283 264 403C387.5 459.522 579.385 478.657 766 426.5C1041.5 349.5 1360 409.5 1559 537.5C1661.77 603.602 1522.38 845.417 1548 1035.5C1570.07 1199.26 1242.21 1353.14 1236 1333C1207.5 1365.6 73.3701 1140.84 47.2663 1208.44C21.1624 1276.04 -127.62 1249.14 -177.475 1242.16C-227.329 1235.18 -335.908 903.643 -343.304 833.992C-349.221 778.271 -346.196 676.766 -343.945 632.978Z" fill="#FFE0A9" fill-opacity="0.33"/>
</svg>
