<svg width="824" height="797" viewBox="0 0 824 797" fill="none" xmlns="http://www.w3.org/2000/svg">
<path d="M821.233 206.099C804.664 119.424 603.608 45.0153 500.065 19.3742C471.545 3.45186 404.707 -31.9908 365.522 -46.3829C316.541 -64.373 59.2353 -100.974 38.1548 -69.9562C17.0744 -38.9387 -49.8872 51.6323 -13.3064 91.3347C23.2745 131.037 -158.39 385.38 -145.989 415.157C-161.49 412.676 -183.81 734.637 -74.0678 772.478C13.7263 802.751 37.3281 798.74 38.1548 792.95C71.2222 796.465 167.986 789.724 290.501 734.637C443.644 665.778 346.922 596.299 382.263 527.44C417.603 458.582 436.204 409.574 500.065 415.157C563.927 420.74 713.683 378.91 751 355C821.233 310 828 241.5 821.233 206.099Z" fill="#E2F2FF" fill-opacity="0.62"/>
</svg>
