<svg width="589" height="663" viewBox="0 0 589 663" fill="none" xmlns="http://www.w3.org/2000/svg">
<path d="M23.3126 -137.469C-49.7745 -88.017 74.0365 -11.5402 77.4995 133.5C78.8954 191.965 12.0001 299 19.7807 383.498C27.5613 467.996 51.4981 525.499 131.499 595.5C211.499 665.5 425.999 662.5 425.999 662.5C425.999 662.5 649.653 636.805 669.86 611.664C675.102 626.461 968.464 491.938 949.156 377.472C933.709 285.898 918.889 267.097 913.41 269.142C900.667 238.427 848.429 156.697 741.417 75.5004C607.652 -25.9954 703.374 -72.4337 626 -70.5005C548.626 -68.5673 472.668 -28.2585 447 -87.0005C421.332 -145.742 148.584 -205.769 184.163 -172.91C219.742 -140.051 114.672 -199.284 23.3126 -137.469Z" fill="#FFB531" fill-opacity="0.19"/>
</svg>
