<svg width="694" height="602" viewBox="0 0 694 602" fill="none" xmlns="http://www.w3.org/2000/svg">
<path d="M590.901 980.233C678.742 971.801 751.985 762.608 777.626 659.065C793.548 630.545 828.991 563.707 843.383 524.522C861.373 475.541 897.974 218.235 866.956 197.155C835.939 176.074 745.368 109.113 705.665 145.694C665.963 182.274 411.62 0.610256 381.843 13.0106C384.324 -2.4898 62.3628 -24.8103 24.5215 84.9322C-5.75159 172.726 -1.74 196.328 4.04992 197.155C0.534597 230.222 7.27574 326.986 62.3628 449.501C131.222 602.644 200.701 505.922 269.56 541.263C338.418 576.603 358.89 630.545 353.307 694.406C347.724 758.268 448.22 980.233 432.711 934.352C417.203 888.471 481.099 990.773 590.901 980.233Z" fill="#FDF2FD" fill-opacity="0.62"/>
</svg>
