<svg xmlns="http://www.w3.org/2000/svg" width="16" height="16" viewBox="0 0 16 16" fill="none">
    <path
        d="M8.4642 2.5945L14.5427 6.1265C14.7792 6.264 14.7792 6.605 14.5427 6.7425L8.4642 10.2745C8.0907 10.4915 7.6297 10.4915 7.2567 10.2745L1.1782 6.7425C0.941699 6.605 0.941699 6.264 1.1782 6.1265L7.2567 2.5945C7.6297 2.378 8.0907 2.378 8.4642 2.5945Z"
        fill="white" />
    <path
        d="M8.4642 2.5945L14.5427 6.1265C14.7792 6.264 14.7792 6.605 14.5427 6.7425L8.4642 10.2745C8.0907 10.4915 7.6297 10.4915 7.2567 10.2745L1.1782 6.7425C0.941699 6.605 0.941699 6.264 1.1782 6.1265L7.2567 2.5945C7.6297 2.378 8.0907 2.378 8.4642 2.5945Z"
        fill="white" />
    <path
        d="M14.54 6.74582L12.475 7.94582L8.465 10.2758C8.09 10.4908 7.63 10.4908 7.255 10.2758L3.245 7.94582L1.175 6.74582C0.939999 6.60582 0.939999 6.26582 1.175 6.12582L7.255 2.59582C7.63 2.38082 8.09 2.38082 8.465 2.59582L14.54 6.12582C14.78 6.26582 14.78 6.60582 14.54 6.74582Z"
        fill="white" />
    <path
        d="M8.842 10.9235C8.5405 11.096 8.2025 11.1865 7.86 11.1865C7.5175 11.1865 7.1795 11.096 6.882 10.926L3.245 8.8125V10.69C3.245 11.11 3.465 11.495 3.83 11.705L6.365 13.17C7.29 13.7 8.43 13.7 9.35 13.17L11.89 11.705C12.25 11.495 12.475 11.11 12.475 10.69V8.8125L8.842 10.9235Z"
        fill="white" />
    <path
        d="M14.65 11.3536V7.54858L13.7495 8.07158V11.3531C13.538 11.4971 13.399 11.7396 13.399 12.0146C13.399 12.4566 13.7575 12.8151 14.1995 12.8151C14.6415 12.8151 15 12.4571 15 12.0151C15 11.7401 14.861 11.4981 14.65 11.3536Z"
        fill="white" />
</svg>