<?xml version="1.0" encoding="iso-8859-1"?>
<!-- Generator: Adobe Illustrator 19.0.0, SVG Export Plug-In . SVG Version: 6.00 Build 0)  -->
<svg version="1.1" id="Capa_1" xmlns="http://www.w3.org/2000/svg" xmlns:xlink="http://www.w3.org/1999/xlink" x="0px" y="0px"
	 viewBox="0 0 497.137 497.137" style="enable-background:new 0 0 497.137 497.137;" xml:space="preserve">
<g>
	<g>
		<path d="M494.12,141.894L355.24,3.227c-2.073-2.247-5.058-3.425-8.107-3.2h-197.12c-3.044-0.194-6.016,0.979-8.107,3.2
			L3.24,141.894c-2.172,2.123-3.336,5.072-3.2,8.107v197.76c0.04,2.814,1.19,5.497,3.2,7.467l138.667,138.88
			c2.129,2.143,5.096,3.236,8.107,2.987h197.12c3.015,0.279,5.994-0.818,8.107-2.987l138.88-140.16
			c1.894-2.028,2.96-4.692,2.987-7.467v-197.12C497.08,146.586,496.015,143.922,494.12,141.894z"/>
	</g>
</g>
<g>
</g>
<g>
</g>
<g>
</g>
<g>
</g>
<g>
</g>
<g>
</g>
<g>
</g>
<g>
</g>
<g>
</g>
<g>
</g>
<g>
</g>
<g>
</g>
<g>
</g>
<g>
</g>
<g>
</g>
</svg>
