<svg xmlns="http://www.w3.org/2000/svg" xmlns:xlink="http://www.w3.org/1999/xlink" version="1.1" width="1080"
     height="1080" viewBox="0 0 1080 1080" xml:space="preserve">
<desc>Created with Fabric.js 5.2.4</desc>
    <defs>
</defs>
    <rect x="0" y="0" width="100%" height="100%" fill="transparent"/>
    <g transform="matrix(1 0 0 1 540 540)" id="10ddf20f-746e-4445-b5da-702b19b5238d">
<rect style="stroke: none; stroke-width: 1; stroke-dasharray: none; stroke-linecap: butt; stroke-dashoffset: 0; stroke-linejoin: miter; stroke-miterlimit: 4; fill: rgb(255,255,255); fill-rule: nonzero; opacity: 1; visibility: hidden;"
      vector-effect="non-scaling-stroke" x="-540" y="-540" rx="0" ry="0" width="1080" height="1080"/>
</g>
    <g transform="matrix(1 0 0 1 540 540)" id="2e15cf93-4e5c-4e5a-a53c-9162a44b436b">
</g>
    <g transform="matrix(22 0 0 22 540.08 541.59)">
<g style="" vector-effect="non-scaling-stroke">
		<g transform="matrix(1 0 0 1 0 0)">
<circle style="stroke: none; stroke-width: 1; stroke-dasharray: none; stroke-linecap: butt; stroke-dashoffset: 0; stroke-linejoin: miter; stroke-miterlimit: 4; fill: rgb(252,234,43); fill-rule: nonzero; opacity: 1;"
        vector-effect="non-scaling-stroke" cx="0" cy="0" r="23"/>
</g>
    <g transform="matrix(1 0 0 1 0 8.59)">
<path style="stroke: none; stroke-width: 1; stroke-dasharray: none; stroke-linecap: butt; stroke-dashoffset: 0; stroke-linejoin: miter; stroke-miterlimit: 4; fill: rgb(255,255,255); fill-rule: nonzero; opacity: 1;"
      vector-effect="non-scaling-stroke" transform=" translate(-36, -44.59)"
      d="M 50.595 41.64 C 50.607037069541015 43.1796819410307 50.311244528384314 44.70624344654058 49.725 46.13 C 37.235 49.160000000000004 24.295 46.470000000000006 22.235000000000003 46 C 21.676231051355728 44.614823542777515 21.394253742638597 43.133593342769444 21.40500000000001 41.64000000000001 L 21.515000000000004 41.64 C 21.515000000000004 41.64 36.315000000000005 45.230000000000004 50.405 41.71 Z"
      stroke-linecap="round"/>
</g>
    <g transform="matrix(1 0 0 1 -0.02 13.68)">
<path style="stroke: none; stroke-width: 1; stroke-dasharray: none; stroke-linecap: butt; stroke-dashoffset: 0; stroke-linejoin: miter; stroke-miterlimit: 4; fill: rgb(234,90,71); fill-rule: nonzero; opacity: 1;"
      vector-effect="non-scaling-stroke" transform=" translate(-35.98, -49.68)"
      d="M 49.7251 46.13 C 47.9351 50.400000000000006 43.375099999999996 53.36 36.0351 53.36 C 28.6251 53.36 24.0051 50.33 22.2351 46 C 24.2951 46.47 37.235 49.16 49.7251 46.13 Z"
      stroke-linecap="round"/>
</g>
    <g transform="matrix(1 0 0 1 0 0)">
<circle style="stroke: rgb(0,0,0); stroke-width: 2; stroke-dasharray: none; stroke-linecap: round; stroke-dashoffset: 0; stroke-linejoin: round; stroke-miterlimit: 4; fill: none; fill-rule: nonzero; opacity: 1;"
        vector-effect="non-scaling-stroke" cx="0" cy="0" r="23"/>
</g>
    <g transform="matrix(1 0 0 1 0 8.59)">
<path style="stroke: rgb(0,0,0); stroke-width: 2; stroke-dasharray: none; stroke-linecap: round; stroke-dashoffset: 0; stroke-linejoin: round; stroke-miterlimit: 4; fill: none; fill-rule: nonzero; opacity: 1;"
      vector-effect="non-scaling-stroke" transform=" translate(-36, -44.59)"
      d="M 50.595 41.64 C 50.607037069541015 43.1796819410307 50.311244528384314 44.70624344654058 49.725 46.13 C 37.235 49.160000000000004 24.295 46.470000000000006 22.235000000000003 46 C 21.676231051355728 44.614823542777515 21.394253742638597 43.133593342769444 21.40500000000001 41.64000000000001 L 21.515000000000004 41.64 C 21.515000000000004 41.64 36.315000000000005 45.230000000000004 50.405 41.71 Z"
      stroke-linecap="round"/>
</g>
    <g transform="matrix(1 0 0 1 -0.02 13.68)">
<path style="stroke: rgb(0,0,0); stroke-width: 2; stroke-dasharray: none; stroke-linecap: round; stroke-dashoffset: 0; stroke-linejoin: round; stroke-miterlimit: 4; fill: none; fill-rule: nonzero; opacity: 1;"
      vector-effect="non-scaling-stroke" transform=" translate(-35.98, -49.68)"
      d="M 49.7251 46.13 C 47.9351 50.400000000000006 43.375099999999996 53.36 36.0351 53.36 C 28.6251 53.36 24.0051 50.33 22.2351 46 C 24.2951 46.47 37.235 49.16 49.7251 46.13 Z"
      stroke-linecap="round"/>
</g>
    <g transform="matrix(1 0 0 1 -8.63 -5)">
<path style="stroke: rgb(0,0,0); stroke-width: 2; stroke-dasharray: none; stroke-linecap: round; stroke-dashoffset: 0; stroke-linejoin: miter; stroke-miterlimit: 10; fill: none; fill-rule: nonzero; opacity: 1;"
      vector-effect="non-scaling-stroke" transform=" translate(-27.38, -31)"
      d="M 31.6941 32.4036 C 30.93566702602256 30.696541412014277 29.242958671607074 29.596342841775126 27.375 29.596342841775126 C 25.507041328392926 29.596342841775126 23.81433297397744 30.69654141201428 23.0559 32.4036"
      stroke-linecap="round"/>
</g>
    <g transform="matrix(1 0 0 1 8.63 -5)">
<path style="stroke: rgb(0,0,0); stroke-width: 2; stroke-dasharray: none; stroke-linecap: round; stroke-dashoffset: 0; stroke-linejoin: miter; stroke-miterlimit: 10; fill: none; fill-rule: nonzero; opacity: 1;"
      vector-effect="non-scaling-stroke" transform=" translate(-44.63, -31)"
      d="M 48.9441 32.4036 C 48.18566702602256 30.696541412014277 46.49295867160707 29.596342841775126 44.625 29.596342841775126 C 42.75704132839293 29.596342841775126 41.06433297397744 30.69654141201428 40.3059 32.4036"
      stroke-linecap="round"/>
</g>
</g>
</g>
</svg>