<svg xmlns="http://www.w3.org/2000/svg" xmlns:xlink="http://www.w3.org/1999/xlink" version="1.1" width="1080"
     height="1080" viewBox="0 0 1080 1080" xml:space="preserve">
<desc>Created with Fabric.js 5.2.4</desc>
    <defs>
</defs>
    <g transform="matrix(1 0 0 1 540 540)" id="10ddf20f-746e-4445-b5da-702b19b5238d">
<rect style="stroke: none; stroke-width: 1; stroke-dasharray: none; stroke-linecap: butt; stroke-dashoffset: 0; stroke-linejoin: miter; stroke-miterlimit: 4; fill: rgb(255,255,255); fill-rule: nonzero; opacity: 1; visibility: hidden;"
      vector-effect="non-scaling-stroke" x="-540" y="-540" rx="0" ry="0" width="1080" height="1080"/>
</g>
    <g transform="matrix(1 0 0 1 540 540)" id="2e15cf93-4e5c-4e5a-a53c-9162a44b436b">
</g>
    <g transform="matrix(22.03 0 0 21.72 540 540)">
<g style="" vector-effect="non-scaling-stroke">
		<g transform="matrix(1 0 0 1 0.2 0.12)">
<path style="stroke: none; stroke-width: 1; stroke-dasharray: none; stroke-linecap: butt; stroke-dashoffset: 0; stroke-linejoin: miter; stroke-miterlimit: 4; fill: rgb(252,234,43); fill-rule: nonzero; opacity: 1;"
      vector-effect="non-scaling-stroke" transform=" translate(-36.2, -36.12)"
      d="M 36.2002 13.3163 C 23.628300000000003 13.3163 13.400400000000001 23.5442 13.400400000000001 36.1161 C 13.400400000000001 48.6879 23.628300000000003 58.91590000000001 36.2002 58.91590000000001 C 48.772 58.9159 59 48.6879 59 36.1161 C 59 23.5442 48.772 13.3163 36.2002 13.3163 z"
      stroke-linecap="round"/>
</g>
    <g transform="matrix(1 0 0 1 -13.67 2.31)">
<path style="stroke: none; stroke-width: 1; stroke-dasharray: none; stroke-linecap: butt; stroke-dashoffset: 0; stroke-linejoin: miter; stroke-miterlimit: 4; fill: rgb(146,211,245); fill-rule: nonzero; opacity: 1;"
      vector-effect="non-scaling-stroke" transform=" translate(-22.33, -38.31)"
      d="M 22.7747 33.8245 C 21.698 34.9264 19.6597 37.3123 19.4823 39.7409 C 19.371199999999998 41.261900000000004 20.6008 42.684000000000005 22.1188 42.79430000000001 C 23.6881 42.90860000000001 25.0576 41.726200000000006 25.1734 40.157900000000005 L 25.1734 40.157900000000005 C 25.3503 37.7287 23.6798 35.0718 22.7747 33.8245 z"
      stroke-linecap="round"/>
</g>
    <g transform="matrix(1 0 0 1 0 0)">
<circle style="stroke: rgb(0,0,0); stroke-width: 2; stroke-dasharray: none; stroke-linecap: butt; stroke-dashoffset: 0; stroke-linejoin: miter; stroke-miterlimit: 10; fill: none; fill-rule: nonzero; opacity: 1;"
        vector-effect="non-scaling-stroke" cx="0" cy="0" r="23"/>
</g>
    <g transform="matrix(1 0 0 1 0 8.99)">
<path style="stroke: rgb(0,0,0); stroke-width: 2; stroke-dasharray: none; stroke-linecap: round; stroke-dashoffset: 0; stroke-linejoin: round; stroke-miterlimit: 10; fill: none; fill-rule: nonzero; opacity: 1;"
      vector-effect="non-scaling-stroke" transform=" translate(-36, -44.99)"
      d="M 26.5 48 C 28.3768 44.1674 32.3239 41.8035 36.5 42 C 40.3343 42.1804 43.7926 44.4926 45.5 48"
      stroke-linecap="round"/>
</g>
    <g transform="matrix(1 0 0 1 -13.62 2.49)">
<path style="stroke: rgb(0,0,0); stroke-width: 2; stroke-dasharray: none; stroke-linecap: butt; stroke-dashoffset: 0; stroke-linejoin: miter; stroke-miterlimit: 10; fill: none; fill-rule: nonzero; opacity: 1;"
      vector-effect="non-scaling-stroke" transform=" translate(-22.38, -38.49)"
      d="M 20.3869 41.6299 C 19.854300000000002 41.0973 19.5611 40.3894 19.5613 39.6363 C 19.5613 37.157399999999996 21.9046 34.7855 22.0043 34.6858 C 22.2117 34.4784 22.5474 34.4786 22.7546 34.6858 C 22.8544 34.7856 25.1978 37.1576 25.1983 39.637 L 25.1985 39.6372 C 25.1978 41.1907 23.9332 42.4549 22.3796 42.4547 C 21.6273 42.4556 20.9195 42.1624 20.3869 41.6299 z"
      stroke-linecap="round"/>
</g>
    <g transform="matrix(1 0 0 1 -9 -5)">
<path style="stroke: none; stroke-width: 1; stroke-dasharray: none; stroke-linecap: butt; stroke-dashoffset: 0; stroke-linejoin: miter; stroke-miterlimit: 4; fill: rgb(0,0,0); fill-rule: nonzero; opacity: 1;"
      vector-effect="non-scaling-stroke" transform=" translate(-27, -31)"
      d="M 30 31 C 30 32.6568 28.6552 34 27 34 C 25.3447 34 24 32.6567 24 31 C 24 29.3448 25.3447 28 27 28 C 28.6552 28 30 29.3448 30 31"
      stroke-linecap="round"/>
</g>
    <g transform="matrix(1 0 0 1 9 -5)">
<path style="stroke: none; stroke-width: 1; stroke-dasharray: none; stroke-linecap: butt; stroke-dashoffset: 0; stroke-linejoin: miter; stroke-miterlimit: 4; fill: rgb(0,0,0); fill-rule: nonzero; opacity: 1;"
      vector-effect="non-scaling-stroke" transform=" translate(-45, -31)"
      d="M 48 31 C 48 32.6568 46.6553 34 45 34 C 43.3447 34 42 32.6567 42 31 C 42 29.3448 43.3447 28 45 28 C 46.6553 28 48 29.3448 48 31"
      stroke-linecap="round"/>
</g>
</g>
</g>
</svg>