<svg xmlns="http://www.w3.org/2000/svg" xmlns:xlink="http://www.w3.org/1999/xlink" version="1.1" width="1080"
     height="1080" viewBox="0 0 1080 1080" xml:space="preserve">
<desc>Created with Fabric.js 5.2.4</desc>
    <defs>
</defs>
    <rect x="0" y="0" width="100%" height="100%" fill="transparent"/>
    <g transform="matrix(1 0 0 1 540 540)" id="10ddf20f-746e-4445-b5da-702b19b5238d">
<rect style="stroke: none; stroke-width: 1; stroke-dasharray: none; stroke-linecap: butt; stroke-dashoffset: 0; stroke-linejoin: miter; stroke-miterlimit: 4; fill: rgb(255,255,255); fill-rule: nonzero; opacity: 1; visibility: hidden;"
      vector-effect="non-scaling-stroke" x="-540" y="-540" rx="0" ry="0" width="1080" height="1080"/>
</g>
    <g transform="matrix(1 0 0 1 540 540)" id="2e15cf93-4e5c-4e5a-a53c-9162a44b436b">
</g>
    <g transform="matrix(21.98 0 0 21.98 540.5 539.5)">
<g style="" vector-effect="non-scaling-stroke">
		<g transform="matrix(1 0 0 1 0 0)">
<circle style="stroke: none; stroke-width: 1; stroke-dasharray: none; stroke-linecap: butt; stroke-dashoffset: 0; stroke-linejoin: miter; stroke-miterlimit: 4; fill: rgb(252,234,43); fill-rule: nonzero; opacity: 1;"
        vector-effect="non-scaling-stroke" cx="0" cy="0" r="22.9999"/>
</g>
    <g transform="matrix(1 0 0 1 0 0)">
<circle style="stroke: rgb(0,0,0); stroke-width: 2; stroke-dasharray: none; stroke-linecap: round; stroke-dashoffset: 0; stroke-linejoin: round; stroke-miterlimit: 4; fill: none; fill-rule: nonzero; opacity: 1;"
        vector-effect="non-scaling-stroke" cx="0" cy="0" r="23"/>
</g>
    <g transform="matrix(1 0 0 1 0 10.21)">
<path style="stroke: rgb(0,0,0); stroke-width: 2; stroke-dasharray: none; stroke-linecap: round; stroke-dashoffset: 0; stroke-linejoin: round; stroke-miterlimit: 4; fill: none; fill-rule: nonzero; opacity: 1;"
      vector-effect="non-scaling-stroke" transform=" translate(-36, -46.21)"
      d="M 45.8149 44.9293 C 42.9154 46.5655 39.566700000000004 47.499199999999995 36 47.499199999999995 C 32.433299999999996 47.499199999999995 29.084699999999998 46.565599999999996 26.1851 44.9293"
      stroke-linecap="round"/>
</g>
    <g transform="matrix(1 0 0 1 -9 -5)">
<path style="stroke: none; stroke-width: 1; stroke-dasharray: none; stroke-linecap: butt; stroke-dashoffset: 0; stroke-linejoin: miter; stroke-miterlimit: 4; fill: rgb(0,0,0); fill-rule: nonzero; opacity: 1;"
      vector-effect="non-scaling-stroke" transform=" translate(-27, -31)"
      d="M 30 31 C 30 32.6568 28.6552 34 27 34 C 25.3447 34 24 32.6567 24 31 C 24 29.3448 25.3447 28 27 28 C 28.6552 28 30 29.3448 30 31"
      stroke-linecap="round"/>
</g>
    <g transform="matrix(1 0 0 1 9 -5)">
<path style="stroke: none; stroke-width: 1; stroke-dasharray: none; stroke-linecap: butt; stroke-dashoffset: 0; stroke-linejoin: miter; stroke-miterlimit: 4; fill: rgb(0,0,0); fill-rule: nonzero; opacity: 1;"
      vector-effect="non-scaling-stroke" transform=" translate(-45, -31)"
      d="M 48 31 C 48 32.6568 46.6553 34 45 34 C 43.3447 34 42 32.6567 42 31 C 42 29.3448 43.3447 28 45 28 C 46.6553 28 48 29.3448 48 31"
      stroke-linecap="round"/>
</g>
</g>
</g>
</svg>