<svg width="18" height="21" viewBox="0 0 18 21" fill="none" xmlns="http://www.w3.org/2000/svg">
<path d="M17.5201 13.7106L15.7201 11.9006V7.44063C15.744 5.78445 15.1679 4.17554 14.0982 2.91096C13.0285 1.64639 11.5373 0.811562 9.90007 0.560627C8.94989 0.435494 7.98394 0.514442 7.06668 0.792202C6.14942 1.06996 5.30194 1.54015 4.5808 2.17139C3.85965 2.80263 3.28142 3.5804 2.88468 4.45282C2.48794 5.32524 2.28182 6.27224 2.28007 7.23063V11.9006L0.480073 13.7106C0.253979 13.9405 0.100657 14.2319 0.0392733 14.5484C-0.0221099 14.865 0.0111694 15.1926 0.134951 15.4903C0.258732 15.788 0.467524 16.0426 0.735224 16.2223C1.00292 16.402 1.31766 16.4988 1.64007 16.5006H5.00007V16.8406C5.04678 17.8558 5.49403 18.8111 6.2438 19.4972C6.99357 20.1832 7.98473 20.544 9.00007 20.5006C10.0154 20.544 11.0066 20.1832 11.7563 19.4972C12.5061 18.8111 12.9534 17.8558 13.0001 16.8406V16.5006H16.3601C16.6825 16.4988 16.9972 16.402 17.2649 16.2223C17.5326 16.0426 17.7414 15.788 17.8652 15.4903C17.989 15.1926 18.0223 14.865 17.9609 14.5484C17.8995 14.2319 17.7462 13.9405 17.5201 13.7106ZM11.0001 16.8406C10.9446 17.3216 10.7057 17.7627 10.3331 18.0719C9.96057 18.3812 9.48306 18.5347 9.00007 18.5006C8.51709 18.5347 8.03957 18.3812 7.667 18.0719C7.29443 17.7627 7.05553 17.3216 7.00007 16.8406V16.5006H11.0001V16.8406ZM2.51007 14.5006L3.69007 13.3206C3.87724 13.1346 4.02574 12.9133 4.127 12.6696C4.22826 12.4259 4.28028 12.1645 4.28007 11.9006V7.23063C4.28062 6.55603 4.42546 5.88935 4.70487 5.27534C4.98428 4.66132 5.3918 4.11418 5.90007 3.67063C6.40149 3.21631 6.99565 2.87638 7.64141 2.67436C8.28718 2.47234 8.96914 2.41306 9.64007 2.50063C10.7966 2.6884 11.8463 3.28764 12.596 4.18801C13.3457 5.08838 13.7449 6.22926 13.7201 7.40063V11.9006C13.7186 12.1638 13.769 12.4248 13.8685 12.6684C13.9681 12.9121 14.1147 13.1337 14.3001 13.3206L15.4901 14.5006H2.51007Z" fill="#231F20"/>
</svg>
