<svg width="20" height="20" viewBox="0 0 20 20" fill="none" xmlns="http://www.w3.org/2000/svg">
    <path d="M9.99988 0.000976562C8.02207 0.000976562 6.08867 0.587466 4.44418 1.68628C2.79969 2.78509 1.51796 4.34688 0.761087 6.17414C0.00421077 8.0014 -0.193823 10.0121 0.19203 11.9519C0.577882 13.8917 1.53029 15.6735 2.92881 17.072C4.32734 18.4706 6.10917 19.423 8.04898 19.8088C9.98879 20.1947 11.9995 19.9966 13.8267 19.2398C15.654 18.4829 17.2158 17.2012 18.3146 15.5567C19.4134 13.9122 19.9999 11.9788 19.9999 10.001C19.9999 8.68776 19.7412 7.3874 19.2387 6.17414C18.7361 4.96089 17.9995 3.85849 17.0709 2.92991C16.1424 2.00132 15.04 1.26473 13.8267 0.762181C12.6135 0.259634 11.3131 0.000976563 9.99988 0.000976562ZM14.2999 7.61098L9.72988 13.611C9.63672 13.732 9.51709 13.8301 9.38015 13.8977C9.24321 13.9653 9.0926 14.0006 8.93988 14.001C8.78799 14.0018 8.63791 13.968 8.50102 13.9022C8.36414 13.8363 8.24405 13.7402 8.14988 13.621L5.70988 10.511C5.62912 10.4072 5.56958 10.2886 5.53467 10.1618C5.49975 10.0351 5.49015 9.9027 5.5064 9.77223C5.52265 9.64177 5.56444 9.51578 5.62938 9.40146C5.69432 9.28715 5.78114 9.18674 5.88488 9.10598C6.0944 8.94287 6.36014 8.86967 6.62363 8.90249C6.75409 8.91874 6.88008 8.96053 6.9944 9.02547C7.10871 9.09041 7.20912 9.17723 7.28988 9.28098L8.91988 11.361L12.6999 6.36098C12.78 6.25592 12.88 6.16767 12.9942 6.10126C13.1084 6.03486 13.2346 5.9916 13.3655 5.97396C13.4965 5.95631 13.6296 5.96463 13.7573 5.99844C13.885 6.03224 14.0048 6.09087 14.1099 6.17098C14.2149 6.25108 14.3032 6.3511 14.3696 6.46531C14.436 6.57952 14.4793 6.7057 14.4969 6.83663C14.5145 6.96756 14.5062 7.10068 14.4724 7.2284C14.4386 7.35611 14.38 7.47592 14.2999 7.58098V7.61098Z"
          fill="#2FB745"/>
</svg>
