<svg width="20" height="20" viewBox="0 0 20 20" fill="none" xmlns="http://www.w3.org/2000/svg">
<path d="M9.99988 0C8.02207 0 6.08867 0.58649 4.44418 1.6853C2.79969 2.78412 1.51796 4.3459 0.761087 6.17317C0.00421077 8.00043 -0.193823 10.0111 0.19203 11.9509C0.577882 13.8907 1.53029 15.6725 2.92881 17.0711C4.32734 18.4696 6.10917 19.422 8.04898 19.8079C9.98879 20.1937 11.9995 19.9957 13.8267 19.2388C15.654 18.4819 17.2158 17.2002 18.3146 15.5557C19.4134 13.9112 19.9999 11.9778 19.9999 10C19.9999 8.68678 19.7412 7.38642 19.2387 6.17317C18.7361 4.95991 17.9995 3.85752 17.0709 2.92893C16.1424 2.00035 15.04 1.26375 13.8267 0.761205C12.6135 0.258658 11.3131 0 9.99988 0ZM9.99988 16C9.8021 16 9.60876 15.9414 9.44431 15.8315C9.27986 15.7216 9.15169 15.5654 9.076 15.3827C9.00032 15.2 8.98051 14.9989 9.0191 14.8049C9.05768 14.6109 9.15292 14.4327 9.29278 14.2929C9.43263 14.153 9.61081 14.0578 9.80479 14.0192C9.99877 13.9806 10.1998 14.0004 10.3826 14.0761C10.5653 14.1518 10.7215 14.28 10.8314 14.4444C10.9412 14.6089 10.9999 14.8022 10.9999 15C10.9999 15.2652 10.8945 15.5196 10.707 15.7071C10.5195 15.8946 10.2651 16 9.99988 16ZM10.9999 10.84V12C10.9999 12.2652 10.8945 12.5196 10.707 12.7071C10.5195 12.8946 10.2651 13 9.99988 13C9.73467 13 9.48031 12.8946 9.29278 12.7071C9.10524 12.5196 8.99988 12.2652 8.99988 12V10C8.99988 9.73478 9.10524 9.48043 9.29278 9.29289C9.48031 9.10536 9.73467 9 9.99988 9C10.2966 9 10.5866 8.91203 10.8332 8.74721C11.0799 8.58238 11.2722 8.34812 11.3857 8.07403C11.4992 7.79994 11.5289 7.49834 11.4711 7.20736C11.4132 6.91639 11.2703 6.64912 11.0605 6.43934C10.8508 6.22956 10.5835 6.0867 10.2925 6.02882C10.0015 5.97094 9.69995 6.00065 9.42586 6.11418C9.15177 6.22771 8.9175 6.41997 8.75268 6.66665C8.58786 6.91332 8.49988 7.20333 8.49988 7.5C8.49988 7.76522 8.39453 8.01957 8.20699 8.20711C8.01945 8.39464 7.7651 8.5 7.49988 8.5C7.23467 8.5 6.98031 8.39464 6.79278 8.20711C6.60524 8.01957 6.49988 7.76522 6.49988 7.5C6.49727 6.8503 6.67554 6.2127 7.01475 5.65858C7.35395 5.10445 7.8407 4.65568 8.4205 4.36251C9.00029 4.06933 9.65025 3.94332 10.2976 3.99859C10.9449 4.05386 11.5641 4.28823 12.0858 4.67545C12.6075 5.06267 13.0112 5.58746 13.2515 6.19107C13.4919 6.79467 13.5595 7.45327 13.4468 8.09312C13.3341 8.73297 13.0455 9.32882 12.6133 9.81396C12.1812 10.2991 11.6225 10.6544 10.9999 10.84Z" fill="#231F20"/>
</svg>
